<svg width="15" height="15" viewBox="0 0 15 15" fill="none" xmlns="http://www.w3.org/2000/svg">
<path d="M9.70012 4.4207C11.4012 4.4207 12.7801 3.92822 12.7801 3.3207C12.7801 2.71319 11.4012 2.2207 9.70012 2.2207C7.99908 2.2207 6.62012 2.71319 6.62012 3.3207C6.62012 3.92822 7.99908 4.4207 9.70012 4.4207Z" stroke="white" stroke-width="0.6" stroke-miterlimit="10" stroke-linecap="round" stroke-linejoin="round"/>
<path d="M6.62012 3.53906C6.62012 3.7397 6.62012 4.65842 6.62012 4.85906C6.62012 5.46648 7.99864 5.95906 9.70012 5.95906C11.4016 5.95906 12.7801 5.46648 12.7801 4.85906C12.7801 4.65842 12.7801 3.7397 12.7801 3.53906" stroke="white" stroke-width="0.6" stroke-miterlimit="10" stroke-linecap="round" stroke-linejoin="round"/>
<path d="M8.28101 7.37666C8.70561 7.45542 9.18829 7.50008 9.70001 7.50008C11.4015 7.50008 12.78 7.0075 12.78 6.40008C12.78 6.19944 12.78 5.28072 12.78 5.08008" stroke="white" stroke-width="0.6" stroke-miterlimit="10" stroke-linecap="round" stroke-linejoin="round"/>
<path d="M6.62012 5.08008C6.62012 5.28072 6.62012 6.01948 6.62012 6.01948" stroke="white" stroke-width="0.6" stroke-miterlimit="10" stroke-linecap="round" stroke-linejoin="round"/>
<path d="M8.3855 8.9342C8.78414 9.00152 9.22964 9.03914 9.7 9.03914C11.4015 9.03914 12.78 8.54678 12.78 7.93914C12.78 7.7385 12.78 6.81978 12.78 6.61914" stroke="white" stroke-width="0.6" stroke-miterlimit="10" stroke-linecap="round" stroke-linejoin="round"/>
<path d="M8.36865 10.4724C8.77147 10.5414 9.22313 10.5802 9.70009 10.5802C11.4016 10.5802 12.7801 10.0878 12.7801 9.48016C12.7801 9.27952 12.7801 8.3608 12.7801 8.16016" stroke="white" stroke-width="0.6" stroke-miterlimit="10" stroke-linecap="round" stroke-linejoin="round"/>
<path d="M5.29997 8.16094C7.00101 8.16094 8.37997 7.66845 8.37997 7.06094C8.37997 6.45342 7.00101 5.96094 5.29997 5.96094C3.59893 5.96094 2.21997 6.45342 2.21997 7.06094C2.21997 7.66845 3.59893 8.16094 5.29997 8.16094Z" stroke="white" stroke-width="0.6" stroke-miterlimit="10" stroke-linecap="round" stroke-linejoin="round"/>
<path d="M2.21997 7.2793C2.21997 7.47994 2.21997 8.39866 2.21997 8.5993C2.21997 9.20694 3.59849 9.6993 5.29997 9.6993C7.00145 9.6993 8.37997 9.20694 8.37997 8.5993C8.37997 8.39866 8.37997 7.47994 8.37997 7.2793" stroke="white" stroke-width="0.6" stroke-miterlimit="10" stroke-linecap="round" stroke-linejoin="round"/>
<path d="M2.21997 8.82031C2.21997 9.02095 2.21997 9.93967 2.21997 10.1403C2.21997 10.748 3.59849 11.2403 5.29997 11.2403C7.00145 11.2403 8.37997 10.748 8.37997 10.1403C8.37997 9.93967 8.37997 9.02095 8.37997 8.82031" stroke="white" stroke-width="0.6" stroke-miterlimit="10" stroke-linecap="round" stroke-linejoin="round"/>
<path d="M2.21997 10.3594C2.21997 10.56 2.21997 11.4787 2.21997 11.6794C2.21997 12.287 3.59849 12.7794 5.29997 12.7794C7.00145 12.7794 8.37997 12.287 8.37997 11.6794C8.37997 11.4787 8.37997 10.56 8.37997 10.3594" stroke="white" stroke-width="0.6" stroke-miterlimit="10" stroke-linecap="round" stroke-linejoin="round"/>
</svg>
